<?xml version="1.0" standalone="no"?><!DOCTYPE svg PUBLIC "-//W3C//DTD SVG 1.1//EN" "http://www.w3.org/Graphics/SVG/1.1/DTD/svg11.dtd"><svg t="1694155072922" class="icon" viewBox="0 0 1024 1024" version="1.1" xmlns="http://www.w3.org/2000/svg" p-id="11578" xmlns:xlink="http://www.w3.org/1999/xlink" width="32" height="32"><path d="M436.643548 72.772327 577.399419 72.772327c15.542095 0 28.144312-12.599189 28.144312-28.143302s-12.601208-28.144312-28.144312-28.144312L436.643548 16.484713c-15.544113 0-28.144312 12.600198-28.144312 28.144312S421.099434 72.772327 436.643548 72.772327z" fill="#ffffff" p-id="11579"></path><path d="M978.463176 143.848143 35.579791 143.848143c-15.544113 0-28.144312 12.600198-28.144312 28.144312s12.600198 28.144312 28.144312 28.144312l79.740029 0 82.138962 766.29693c0 31.088227 25.200397 56.288623 56.287614 56.288623l506.548156 0c31.087217 0 56.287614-25.201406 56.287614-56.288623l82.139971-766.29693 79.740029 0c15.542095 0 28.144312-12.600198 28.144312-28.144312S994.005271 143.848143 978.463176 143.848143zM760.295562 938.146074c0 15.544113-12.602217 28.145321-28.144312 28.145321L281.892726 966.291395c-15.544113 0-28.144312-12.600198-28.144312-28.145321l-82.055196-738.009308L842.351767 200.136766 760.295562 938.146074z" fill="#ffffff" p-id="11580"></path><path d="M617.038826 537.063142c0 19.428628-7.873989 37.018444-20.607405 49.75186-22.919544 22.919544-37.095145 54.58202-37.095145 89.555771 0 34.974759 14.175602 66.636227 37.095145 89.552743 12.733416 12.733416 20.607405 30.324242 20.607405 49.752869s-7.873989 37.019453-20.607405 49.75186l0.036332 0.038351c-5.204583 5.107698-8.441174 12.213664-8.441174 20.080588 0 15.545122 12.59818 28.144312 28.144312 28.144312 8.141434 0 15.454292-3.477796 20.593276-9.003313 22.605674-22.874129 36.563283-54.309529 36.563283-89.011797 0-34.974759-14.173583-66.634208-37.094136-89.552743-12.733416-12.733416-20.607405-30.324242-20.607405-49.752869 0-19.429637 7.873989-37.019453 20.607405-49.752869 22.917525-22.919544 37.094136-54.581011 37.094136-89.554761s-14.176611-66.636227-37.096154-89.554761c-12.731398-12.732407-20.608414-30.322223-20.608414-49.75186 0-19.430646 7.873989-37.019453 20.608414-49.75186l-0.008074-0.009083c5.292386-5.11779 8.596595-12.279264 8.596595-20.223899 0-15.544113-12.59818-28.144312-28.143302-28.144312-7.944634 0-15.107118 3.304209-20.223899 8.598613l-0.024221-0.025231c-22.916516 22.919544-37.095145 54.58202-37.095145 89.554761 0 34.972741 14.178629 66.635218 37.098173 89.553752C609.161809 500.043688 617.038826 517.633505 617.038826 537.063142z" fill="#ffffff" p-id="11581"></path><path d="M361.847721 537.063142c0 19.428628-7.873989 37.018444-20.608414 49.75186-22.918534 22.919544-37.094136 54.58202-37.094136 89.555771 0 34.974759 14.175602 66.636227 37.094136 89.552743 12.734425 12.733416 20.608414 30.324242 20.608414 49.752869s-7.873989 37.019453-20.608414 49.75186l0.037341 0.038351c-5.204583 5.107698-8.442183 12.213664-8.442183 20.080588 0 15.545122 12.599189 28.144312 28.144312 28.144312 8.141434 0 15.454292-3.477796 20.592266-9.003313 22.605674-22.874129 36.564292-54.309529 36.564292-89.011797 0-34.974759-14.173583-66.634208-37.093127-89.552743-12.733416-12.733416-20.608414-30.324242-20.608414-49.752869 0-19.429637 7.874998-37.019453 20.608414-49.752869 22.916516-22.919544 37.093127-54.581011 37.093127-89.554761s-14.176611-66.636227-37.096154-89.554761c-12.730389-12.732407-20.607405-30.322223-20.607405-49.75186 0-19.430646 7.873989-37.019453 20.607405-49.75186l-0.009083-0.009083c5.293395-5.11779 8.598613-12.279264 8.598613-20.223899 0-15.544113-12.599189-28.144312-28.144312-28.144312-7.943625 0-15.106109 3.304209-20.222889 8.598613l-0.024221-0.025231c-22.916516 22.919544-37.094136 54.58202-37.094136 89.554761 0 34.972741 14.17762 66.635218 37.097164 89.553752C353.969696 500.043688 361.847721 517.633505 361.847721 537.063142z" fill="#ffffff" p-id="11582"></path></svg>