<?xml version="1.0" standalone="no"?><!DOCTYPE svg PUBLIC "-//W3C//DTD SVG 1.1//EN" "http://www.w3.org/Graphics/SVG/1.1/DTD/svg11.dtd"><svg t="1694160192235" class="icon" viewBox="0 0 1024 1024" version="1.1" xmlns="http://www.w3.org/2000/svg" p-id="8351" xmlns:xlink="http://www.w3.org/1999/xlink" width="32" height="32"><path d="M960 981.333333H106.666667a21.333333 21.333333 0 0 1 0-42.666666h853.333333a21.333333 21.333333 0 0 1 0 42.666666z m0-213.333333H106.666667a21.333333 21.333333 0 0 1 0-42.666667h853.333333a21.333333 21.333333 0 0 1 0 42.666667zM448 554.666667a21.333333 21.333333 0 0 1-19.813333-13.42L382.36 426.666667H172.306667l-45.833334 114.586666a21.333333 21.333333 0 0 1-39.613333-15.84l170.666667-426.666666a21.333333 21.333333 0 0 1 39.613333 0l170.666667 426.666666A21.333333 21.333333 0 0 1 448 554.666667zM189.373333 384h175.913334L277.333333 164.106667zM960 554.666667H618.666667a21.333333 21.333333 0 0 1 0-42.666667h341.333333a21.333333 21.333333 0 0 1 0 42.666667z m0-213.333334H618.666667a21.333333 21.333333 0 0 1 0-42.666666h341.333333a21.333333 21.333333 0 0 1 0 42.666666z m0-213.333333H618.666667a21.333333 21.333333 0 0 1 0-42.666667h341.333333a21.333333 21.333333 0 0 1 0 42.666667z" fill="#ffffff" p-id="8352"></path></svg>