<?xml version="1.0" standalone="no"?><!DOCTYPE svg PUBLIC "-//W3C//DTD SVG 1.1//EN" "http://www.w3.org/Graphics/SVG/1.1/DTD/svg11.dtd"><svg t="1694160313653" class="icon" viewBox="0 0 1024 1024" version="1.1" xmlns="http://www.w3.org/2000/svg" p-id="8545" xmlns:xlink="http://www.w3.org/1999/xlink" width="32" height="32"><path d="M896 981.333333H138.666667a53.393333 53.393333 0 0 1-53.333334-53.333333V96a53.393333 53.393333 0 0 1 53.333334-53.333333h704a53.393333 53.393333 0 0 1 53.333333 53.333333v736a21.333333 21.333333 0 0 1-42.666667 0V96a10.666667 10.666667 0 0 0-10.666666-10.666667H138.666667a10.666667 10.666667 0 0 0-10.666667 10.666667v832a10.666667 10.666667 0 0 0 10.666667 10.666667h757.333333a42.713333 42.713333 0 0 0 42.666667-42.666667V234.666667a21.333333 21.333333 0 0 1 42.666666 0v661.333333a85.426667 85.426667 0 0 1-85.333333 85.333333z m-170.666667-192a21.333333 21.333333 0 0 0-21.333333-21.333333H277.333333a21.333333 21.333333 0 0 0 0 42.666667h426.666667a21.333333 21.333333 0 0 0 21.333333-21.333334z m0-170.666666a21.333333 21.333333 0 0 0-21.333333-21.333334H277.333333a21.333333 21.333333 0 0 0 0 42.666667h426.666667a21.333333 21.333333 0 0 0 21.333333-21.333333z m0-213.333334a21.333333 21.333333 0 0 0-21.333333-21.333333H576a21.333333 21.333333 0 0 0 0 42.666667h128a21.333333 21.333333 0 0 0 21.333333-21.333334z m0-170.666666a21.333333 21.333333 0 0 0-21.333333-21.333334H576a21.333333 21.333333 0 0 0 0 42.666667h128a21.333333 21.333333 0 0 0 21.333333-21.333333zM455.06 468.133333A21.333333 21.333333 0 0 0 469.333333 448V234.666667a21.333333 21.333333 0 0 0-42.666666 0v152.52L294 221.333333a21.333333 21.333333 0 0 0-38 13.333334v213.333333a21.333333 21.333333 0 0 0 42.666667 0V295.48L431.333333 461.333333a21.333333 21.333333 0 0 0 23.72 6.806667z" fill="#ffffff" p-id="8546"></path></svg>