<?xml version="1.0" standalone="no"?><!DOCTYPE svg PUBLIC "-//W3C//DTD SVG 1.1//EN" "http://www.w3.org/Graphics/SVG/1.1/DTD/svg11.dtd"><svg t="1694156839212" class="icon" viewBox="0 0 1024 1024" version="1.1" xmlns="http://www.w3.org/2000/svg" p-id="17007" xmlns:xlink="http://www.w3.org/1999/xlink" width="32" height="32"><path d="M512.004605 941.777347c-236.991576 0-429.788603-192.781678-429.788603-429.77223 0-236.959853 192.797028-429.788603 429.788603-429.788603 236.94348 0 429.725158 192.765305 429.788603 429.692413 0 5.692652-2.286066 11.160177-6.315846 15.205307-3.981684 4.013407-9.465582 6.315846-15.141862 6.315846l-644.682905 0.096191c-11.879562 0-21.521153-9.641591-21.521153-21.521153 0-11.864212 9.641591-21.441335 21.521153-21.441335l622.602004-0.159636C887.013581 287.133579 718.056518 125.195374 512.004605 125.195374c-213.263152 0-386.809743 173.546591-386.809743 386.809743 0 213.279524 173.546591 386.79337 386.809743 386.79337 143.902434 0 275.061636-79.258135 342.264201-206.900234 5.531993-10.505261 18.547425-14.470573 29.036313-9.002025 10.505261 5.516644 14.534018 18.531052 8.985652 29.004591C817.604768 853.724919 671.896198 941.777347 512.004605 941.777347L512.004605 941.777347z" p-id="17008" fill="#ffffff"></path></svg>